<?xml version="1.0" encoding="utf-8"?>
<!-- Generator: Adobe Illustrator 16.0.0, SVG Export Plug-In . SVG Version: 6.00 Build 0)  -->
<!DOCTYPE svg PUBLIC "-//W3C//DTD SVG 1.1//EN" "http://www.w3.org/Graphics/SVG/1.1/DTD/svg11.dtd">
<svg version="1.1" id="Layer_1" xmlns="http://www.w3.org/2000/svg" xmlns:xlink="http://www.w3.org/1999/xlink" x="0px" y="0px"
	 width="126px" height="126px" viewBox="0 0 126 126" enable-background="new 0 0 126 126" xml:space="preserve">
<path stroke="#6D6E70" stroke-width="0" stroke-linecap="round" stroke-linejoin="round" d="M100.517,25.488
	C79.829,4.799,46.17,4.799,25.486,25.483C4.798,46.169,4.8,79.829,25.488,100.517c20.682,20.684,54.341,20.684,75.027-0.004
	C121.201,79.829,121.199,46.171,100.517,25.488z M94.728,94.728c-17.494,17.494-45.961,17.496-63.455,0.002
	c-17.498-17.497-17.496-45.966,0-63.46c17.494-17.493,45.959-17.495,63.457,0.002C112.224,48.766,112.222,77.235,94.728,94.728z
	 M86.988,83.971c0.658,1.521-0.042,3.287-1.563,3.944c-1.521,0.66-3.286-0.042-3.944-1.563c-2.893-6.689-9.731-11.011-17.421-11.011
	c-7.868,0-14.747,4.319-17.523,11.004c-0.479,1.154-1.596,1.85-2.771,1.85c-0.384,0-0.773-0.074-1.15-0.23
	c-1.53-0.636-2.255-2.392-1.62-3.921c3.71-8.932,12.764-14.703,23.064-14.703C74.145,69.342,83.145,75.084,86.988,83.971z
	 M43.211,48.641c0-3.423,2.777-6.201,6.201-6.201c3.423,0,6.2,2.777,6.2,6.201c0,3.426-2.777,6.203-6.2,6.203
	C45.988,54.844,43.211,52.067,43.211,48.641z M71.328,48.641c0-3.423,2.78-6.201,6.203-6.201c3.423,0,6.201,2.777,6.201,6.201
	c0,3.426-2.777,6.203-6.201,6.203C74.108,54.844,71.328,52.067,71.328,48.641z"/>
</svg>
