<?xml version="1.0" ?><svg enable-background="new 0 0 32 32" height="32px" id="svg2" version="1.1" viewBox="0 0 32 32" width="32px" xml:space="preserve" xmlns="http://www.w3.org/2000/svg" xmlns:cc="http://creativecommons.org/ns#" xmlns:dc="http://purl.org/dc/elements/1.1/" xmlns:inkscape="http://www.inkscape.org/namespaces/inkscape" xmlns:rdf="http://www.w3.org/1999/02/22-rdf-syntax-ns#" xmlns:sodipodi="http://sodipodi.sourceforge.net/DTD/sodipodi-0.dtd" xmlns:svg="http://www.w3.org/2000/svg"><g id="background"><rect fill="none" height="32" width="32"/></g><g id="folder"><path d="M31.999,22.988L32,8h-2V6H10V4H0v28h31.999v-8.988C31.999,23.008,32,23.004,32,23S31.999,22.992,31.999,22.988z M2,29.999   V6h6v4h21.999v7.348C28.35,15.307,25.829,14,23,14c-4.973,0-9,4.027-9,9c0,2.829,1.307,5.35,3.348,6.999H2z M23,29.883   c-3.801-0.009-6.876-3.084-6.885-6.883c0.009-3.801,3.084-6.876,6.885-6.884c3.799,0.008,6.874,3.083,6.883,6.884   C29.874,26.799,26.799,29.874,23,29.883z M29.999,29.999H28.65c0.496-0.4,0.948-0.853,1.349-1.349V29.999z"/><g><polygon points="28,22 24.002,22 24.002,18 22,18 22,22 18,22 18,24 22,24 22,28 24.002,28 24.002,24 28,24   "/></g></g></svg>